<mxfile host="Electron" agent="Mozilla/5.0 (Windows NT 10.0; Win64; x64) AppleWebKit/537.36 (KHTML, like Gecko) draw.io/24.7.5 Chrome/126.0.6478.183 Electron/31.3.0 Safari/537.36" version="24.7.5">
  <diagram name="Page-1" id="wamdJYSF_lhRxLsGCfwB">
    <mxGraphModel dx="3489" dy="2049" grid="1" gridSize="10" guides="1" tooltips="1" connect="1" arrows="1" fold="1" page="1" pageScale="1" pageWidth="850" pageHeight="1100" math="0" shadow="0">
      <root>
        <mxCell id="0" />
        <mxCell id="1" parent="0" />
        <mxCell id="S05moFFJ7QBuVl53iLkL-6" value="safety_device" style="swimlane;fontStyle=1;childLayout=stackLayout;horizontal=1;startSize=26;fillColor=default;horizontalStack=0;resizeParent=1;resizeLast=0;collapsible=1;marginBottom=0;swimlaneFillColor=default;align=center;" parent="1" vertex="1">
          <mxGeometry x="1042" y="160" width="218" height="260" as="geometry" />
        </mxCell>
        <mxCell id="S05moFFJ7QBuVl53iLkL-7" value="safety_device_id" style="shape=partialRectangle;top=0;left=0;right=0;bottom=0;align=left;verticalAlign=top;spacingTop=-2;fillColor=none;spacingLeft=64;spacingRight=4;overflow=hidden;rotatable=0;points=[[0,0.5],[1,0.5]];portConstraint=eastwest;dropTarget=0;fontStyle=1" parent="S05moFFJ7QBuVl53iLkL-6" vertex="1">
          <mxGeometry y="26" width="218" height="26" as="geometry" />
        </mxCell>
        <mxCell id="S05moFFJ7QBuVl53iLkL-8" value="PK" style="shape=partialRectangle;top=0;left=0;bottom=0;fillColor=none;align=left;verticalAlign=middle;spacingLeft=4;spacingRight=4;overflow=hidden;rotatable=180;points=[];portConstraint=eastwest;part=1;" parent="S05moFFJ7QBuVl53iLkL-7" vertex="1" connectable="0">
          <mxGeometry width="54" height="26" as="geometry" />
        </mxCell>
        <mxCell id="S05moFFJ7QBuVl53iLkL-11" value="safety_device_type_id" style="shape=partialRectangle;top=0;left=0;right=0;bottom=0;align=left;verticalAlign=top;spacingTop=-2;fillColor=none;spacingLeft=64;spacingRight=4;overflow=hidden;rotatable=0;points=[[0,0.5],[1,0.5]];portConstraint=eastwest;dropTarget=0;" parent="S05moFFJ7QBuVl53iLkL-6" vertex="1">
          <mxGeometry y="52" width="218" height="26" as="geometry" />
        </mxCell>
        <mxCell id="S05moFFJ7QBuVl53iLkL-12" value="FK" style="shape=partialRectangle;top=0;left=0;bottom=0;fillColor=none;align=left;verticalAlign=middle;spacingLeft=4;spacingRight=4;overflow=hidden;rotatable=180;points=[];portConstraint=eastwest;part=1;" parent="S05moFFJ7QBuVl53iLkL-11" vertex="1" connectable="0">
          <mxGeometry width="54" height="26" as="geometry" />
        </mxCell>
        <mxCell id="fU8XdzItECVycu_1jgfG-1" value="room_id" style="shape=partialRectangle;top=0;left=0;right=0;bottom=0;align=left;verticalAlign=top;spacingTop=-2;fillColor=none;spacingLeft=64;spacingRight=4;overflow=hidden;rotatable=0;points=[[0,0.5],[1,0.5]];portConstraint=eastwest;dropTarget=0;" vertex="1" parent="S05moFFJ7QBuVl53iLkL-6">
          <mxGeometry y="78" width="218" height="26" as="geometry" />
        </mxCell>
        <mxCell id="fU8XdzItECVycu_1jgfG-2" value="FK" style="shape=partialRectangle;top=0;left=0;bottom=0;fillColor=none;align=left;verticalAlign=middle;spacingLeft=4;spacingRight=4;overflow=hidden;rotatable=180;points=[];portConstraint=eastwest;part=1;" vertex="1" connectable="0" parent="fU8XdzItECVycu_1jgfG-1">
          <mxGeometry width="54" height="26" as="geometry" />
        </mxCell>
        <mxCell id="S05moFFJ7QBuVl53iLkL-13" value="date_of_manufacture" style="shape=partialRectangle;top=0;left=0;right=0;bottom=0;align=left;verticalAlign=top;spacingTop=-2;fillColor=none;spacingLeft=64;spacingRight=4;overflow=hidden;rotatable=0;points=[[0,0.5],[1,0.5]];portConstraint=eastwest;dropTarget=0;" parent="S05moFFJ7QBuVl53iLkL-6" vertex="1">
          <mxGeometry y="104" width="218" height="26" as="geometry" />
        </mxCell>
        <mxCell id="S05moFFJ7QBuVl53iLkL-14" value="" style="shape=partialRectangle;top=0;left=0;bottom=0;fillColor=none;align=left;verticalAlign=middle;spacingLeft=4;spacingRight=4;overflow=hidden;rotatable=180;points=[];portConstraint=eastwest;part=1;" parent="S05moFFJ7QBuVl53iLkL-13" vertex="1" connectable="0">
          <mxGeometry width="54" height="26" as="geometry" />
        </mxCell>
        <mxCell id="S05moFFJ7QBuVl53iLkL-81" value="serial_number" style="shape=partialRectangle;top=0;left=0;right=0;bottom=0;align=left;verticalAlign=top;spacingTop=-2;fillColor=none;spacingLeft=64;spacingRight=4;overflow=hidden;rotatable=0;points=[[0,0.5],[1,0.5]];portConstraint=eastwest;dropTarget=0;" parent="S05moFFJ7QBuVl53iLkL-6" vertex="1">
          <mxGeometry y="130" width="218" height="26" as="geometry" />
        </mxCell>
        <mxCell id="S05moFFJ7QBuVl53iLkL-82" value="" style="shape=partialRectangle;top=0;left=0;bottom=0;fillColor=none;align=left;verticalAlign=middle;spacingLeft=4;spacingRight=4;overflow=hidden;rotatable=180;points=[];portConstraint=eastwest;part=1;" parent="S05moFFJ7QBuVl53iLkL-81" vertex="1" connectable="0">
          <mxGeometry width="54" height="26" as="geometry" />
        </mxCell>
        <mxCell id="S05moFFJ7QBuVl53iLkL-15" value="expire_date" style="shape=partialRectangle;top=0;left=0;right=0;bottom=0;align=left;verticalAlign=top;spacingTop=-2;fillColor=none;spacingLeft=64;spacingRight=4;overflow=hidden;rotatable=0;points=[[0,0.5],[1,0.5]];portConstraint=eastwest;dropTarget=0;" parent="S05moFFJ7QBuVl53iLkL-6" vertex="1">
          <mxGeometry y="156" width="218" height="26" as="geometry" />
        </mxCell>
        <mxCell id="S05moFFJ7QBuVl53iLkL-16" value="" style="shape=partialRectangle;top=0;left=0;bottom=0;fillColor=none;align=left;verticalAlign=middle;spacingLeft=4;spacingRight=4;overflow=hidden;rotatable=180;points=[];portConstraint=eastwest;part=1;" parent="S05moFFJ7QBuVl53iLkL-15" vertex="1" connectable="0">
          <mxGeometry width="54" height="26" as="geometry" />
        </mxCell>
        <mxCell id="S05moFFJ7QBuVl53iLkL-17" value="size" style="shape=partialRectangle;top=0;left=0;right=0;bottom=0;align=left;verticalAlign=top;spacingTop=-2;fillColor=none;spacingLeft=64;spacingRight=4;overflow=hidden;rotatable=0;points=[[0,0.5],[1,0.5]];portConstraint=eastwest;dropTarget=0;" parent="S05moFFJ7QBuVl53iLkL-6" vertex="1">
          <mxGeometry y="182" width="218" height="26" as="geometry" />
        </mxCell>
        <mxCell id="S05moFFJ7QBuVl53iLkL-18" value="" style="shape=partialRectangle;top=0;left=0;bottom=0;fillColor=none;align=left;verticalAlign=middle;spacingLeft=4;spacingRight=4;overflow=hidden;rotatable=180;points=[];portConstraint=eastwest;part=1;" parent="S05moFFJ7QBuVl53iLkL-17" vertex="1" connectable="0">
          <mxGeometry width="54" height="26" as="geometry" />
        </mxCell>
        <mxCell id="S05moFFJ7QBuVl53iLkL-19" value="misc" style="shape=partialRectangle;top=0;left=0;right=0;bottom=0;align=left;verticalAlign=top;spacingTop=-2;fillColor=none;spacingLeft=64;spacingRight=4;overflow=hidden;rotatable=0;points=[[0,0.5],[1,0.5]];portConstraint=eastwest;dropTarget=0;" parent="S05moFFJ7QBuVl53iLkL-6" vertex="1">
          <mxGeometry y="208" width="218" height="26" as="geometry" />
        </mxCell>
        <mxCell id="S05moFFJ7QBuVl53iLkL-20" value="" style="shape=partialRectangle;top=0;left=0;bottom=0;fillColor=none;align=left;verticalAlign=middle;spacingLeft=4;spacingRight=4;overflow=hidden;rotatable=180;points=[];portConstraint=eastwest;part=1;" parent="S05moFFJ7QBuVl53iLkL-19" vertex="1" connectable="0">
          <mxGeometry width="54" height="26" as="geometry" />
        </mxCell>
        <mxCell id="S05moFFJ7QBuVl53iLkL-21" value="status" style="shape=partialRectangle;top=0;left=0;right=0;bottom=0;align=left;verticalAlign=top;spacingTop=-2;fillColor=none;spacingLeft=64;spacingRight=4;overflow=hidden;rotatable=0;points=[[0,0.5],[1,0.5]];portConstraint=eastwest;dropTarget=0;" parent="S05moFFJ7QBuVl53iLkL-6" vertex="1">
          <mxGeometry y="234" width="218" height="26" as="geometry" />
        </mxCell>
        <mxCell id="S05moFFJ7QBuVl53iLkL-22" value="" style="shape=partialRectangle;top=0;left=0;bottom=0;fillColor=none;align=left;verticalAlign=middle;spacingLeft=4;spacingRight=4;overflow=hidden;rotatable=180;points=[];portConstraint=eastwest;part=1;" parent="S05moFFJ7QBuVl53iLkL-21" vertex="1" connectable="0">
          <mxGeometry width="54" height="26" as="geometry" />
        </mxCell>
        <mxCell id="S05moFFJ7QBuVl53iLkL-23" value="site" style="swimlane;fontStyle=1;childLayout=stackLayout;horizontal=1;startSize=26;fillColor=default;horizontalStack=0;resizeParent=1;resizeLast=0;collapsible=1;marginBottom=0;swimlaneFillColor=default;align=center;" parent="1" vertex="1">
          <mxGeometry x="440" y="532" width="205" height="104" as="geometry" />
        </mxCell>
        <mxCell id="S05moFFJ7QBuVl53iLkL-24" value="site_id" style="shape=partialRectangle;top=0;left=0;right=0;bottom=0;align=left;verticalAlign=top;spacingTop=-2;fillColor=none;spacingLeft=64;spacingRight=4;overflow=hidden;rotatable=0;points=[[0,0.5],[1,0.5]];portConstraint=eastwest;dropTarget=0;fontStyle=1" parent="S05moFFJ7QBuVl53iLkL-23" vertex="1">
          <mxGeometry y="26" width="205" height="26" as="geometry" />
        </mxCell>
        <mxCell id="S05moFFJ7QBuVl53iLkL-25" value="PK" style="shape=partialRectangle;top=0;left=0;bottom=0;fillColor=none;align=left;verticalAlign=middle;spacingLeft=4;spacingRight=4;overflow=hidden;rotatable=180;points=[];portConstraint=eastwest;part=1;" parent="S05moFFJ7QBuVl53iLkL-24" vertex="1" connectable="0">
          <mxGeometry width="54" height="26" as="geometry" />
        </mxCell>
        <mxCell id="S05moFFJ7QBuVl53iLkL-26" value="name" style="shape=partialRectangle;top=0;left=0;right=0;bottom=0;align=left;verticalAlign=top;spacingTop=-2;fillColor=none;spacingLeft=64;spacingRight=4;overflow=hidden;rotatable=0;points=[[0,0.5],[1,0.5]];portConstraint=eastwest;dropTarget=0;" parent="S05moFFJ7QBuVl53iLkL-23" vertex="1">
          <mxGeometry y="52" width="205" height="26" as="geometry" />
        </mxCell>
        <mxCell id="S05moFFJ7QBuVl53iLkL-27" value="" style="shape=partialRectangle;top=0;left=0;bottom=0;fillColor=none;align=left;verticalAlign=middle;spacingLeft=4;spacingRight=4;overflow=hidden;rotatable=180;points=[];portConstraint=eastwest;part=1;" parent="S05moFFJ7QBuVl53iLkL-26" vertex="1" connectable="0">
          <mxGeometry width="54" height="26" as="geometry" />
        </mxCell>
        <mxCell id="S05moFFJ7QBuVl53iLkL-28" value="address" style="shape=partialRectangle;top=0;left=0;right=0;bottom=0;align=left;verticalAlign=top;spacingTop=-2;fillColor=none;spacingLeft=64;spacingRight=4;overflow=hidden;rotatable=0;points=[[0,0.5],[1,0.5]];portConstraint=eastwest;dropTarget=0;" parent="S05moFFJ7QBuVl53iLkL-23" vertex="1">
          <mxGeometry y="78" width="205" height="26" as="geometry" />
        </mxCell>
        <mxCell id="S05moFFJ7QBuVl53iLkL-29" value="" style="shape=partialRectangle;top=0;left=0;bottom=0;fillColor=none;align=left;verticalAlign=middle;spacingLeft=4;spacingRight=4;overflow=hidden;rotatable=180;points=[];portConstraint=eastwest;part=1;" parent="S05moFFJ7QBuVl53iLkL-28" vertex="1" connectable="0">
          <mxGeometry width="54" height="26" as="geometry" />
        </mxCell>
        <mxCell id="S05moFFJ7QBuVl53iLkL-30" value="building" style="swimlane;fontStyle=1;childLayout=stackLayout;horizontal=1;startSize=26;fillColor=default;horizontalStack=0;resizeParent=1;resizeLast=0;collapsible=1;marginBottom=0;swimlaneFillColor=default;align=center;" parent="1" vertex="1">
          <mxGeometry x="732.5" y="506" width="209" height="104" as="geometry" />
        </mxCell>
        <mxCell id="S05moFFJ7QBuVl53iLkL-31" value="building_id" style="shape=partialRectangle;top=0;left=0;right=0;bottom=0;align=left;verticalAlign=top;spacingTop=-2;fillColor=none;spacingLeft=64;spacingRight=4;overflow=hidden;rotatable=0;points=[[0,0.5],[1,0.5]];portConstraint=eastwest;dropTarget=0;fontStyle=1" parent="S05moFFJ7QBuVl53iLkL-30" vertex="1">
          <mxGeometry y="26" width="209" height="26" as="geometry" />
        </mxCell>
        <mxCell id="S05moFFJ7QBuVl53iLkL-32" value="PK" style="shape=partialRectangle;top=0;left=0;bottom=0;fillColor=none;align=left;verticalAlign=middle;spacingLeft=4;spacingRight=4;overflow=hidden;rotatable=180;points=[];portConstraint=eastwest;part=1;" parent="S05moFFJ7QBuVl53iLkL-31" vertex="1" connectable="0">
          <mxGeometry width="54" height="26" as="geometry" />
        </mxCell>
        <mxCell id="S05moFFJ7QBuVl53iLkL-33" value="site_id" style="shape=partialRectangle;top=0;left=0;right=0;bottom=0;align=left;verticalAlign=top;spacingTop=-2;fillColor=none;spacingLeft=64;spacingRight=4;overflow=hidden;rotatable=0;points=[[0,0.5],[1,0.5]];portConstraint=eastwest;dropTarget=0;" parent="S05moFFJ7QBuVl53iLkL-30" vertex="1">
          <mxGeometry y="52" width="209" height="26" as="geometry" />
        </mxCell>
        <mxCell id="S05moFFJ7QBuVl53iLkL-34" value="FK" style="shape=partialRectangle;top=0;left=0;bottom=0;fillColor=none;align=left;verticalAlign=middle;spacingLeft=4;spacingRight=4;overflow=hidden;rotatable=180;points=[];portConstraint=eastwest;part=1;" parent="S05moFFJ7QBuVl53iLkL-33" vertex="1" connectable="0">
          <mxGeometry width="54" height="26" as="geometry" />
        </mxCell>
        <mxCell id="S05moFFJ7QBuVl53iLkL-35" value="name" style="shape=partialRectangle;top=0;left=0;right=0;bottom=0;align=left;verticalAlign=top;spacingTop=-2;fillColor=none;spacingLeft=64;spacingRight=4;overflow=hidden;rotatable=0;points=[[0,0.5],[1,0.5]];portConstraint=eastwest;dropTarget=0;" parent="S05moFFJ7QBuVl53iLkL-30" vertex="1">
          <mxGeometry y="78" width="209" height="26" as="geometry" />
        </mxCell>
        <mxCell id="S05moFFJ7QBuVl53iLkL-36" value="" style="shape=partialRectangle;top=0;left=0;bottom=0;fillColor=none;align=left;verticalAlign=middle;spacingLeft=4;spacingRight=4;overflow=hidden;rotatable=180;points=[];portConstraint=eastwest;part=1;" parent="S05moFFJ7QBuVl53iLkL-35" vertex="1" connectable="0">
          <mxGeometry width="54" height="26" as="geometry" />
        </mxCell>
        <mxCell id="S05moFFJ7QBuVl53iLkL-37" value="room" style="swimlane;fontStyle=1;childLayout=stackLayout;horizontal=1;startSize=26;fillColor=default;horizontalStack=0;resizeParent=1;resizeLast=0;collapsible=1;marginBottom=0;swimlaneFillColor=default;align=center;" parent="1" vertex="1">
          <mxGeometry x="1040" y="480" width="220" height="110" as="geometry" />
        </mxCell>
        <mxCell id="S05moFFJ7QBuVl53iLkL-38" value="room_id" style="shape=partialRectangle;top=0;left=0;right=0;bottom=0;align=left;verticalAlign=top;spacingTop=-2;fillColor=none;spacingLeft=64;spacingRight=4;overflow=hidden;rotatable=0;points=[[0,0.5],[1,0.5]];portConstraint=eastwest;dropTarget=0;fontStyle=1" parent="S05moFFJ7QBuVl53iLkL-37" vertex="1">
          <mxGeometry y="26" width="220" height="26" as="geometry" />
        </mxCell>
        <mxCell id="S05moFFJ7QBuVl53iLkL-39" value="PK" style="shape=partialRectangle;top=0;left=0;bottom=0;fillColor=none;align=left;verticalAlign=middle;spacingLeft=4;spacingRight=4;overflow=hidden;rotatable=180;points=[];portConstraint=eastwest;part=1;" parent="S05moFFJ7QBuVl53iLkL-38" vertex="1" connectable="0">
          <mxGeometry width="54" height="26" as="geometry" />
        </mxCell>
        <mxCell id="S05moFFJ7QBuVl53iLkL-40" value="building_id" style="shape=partialRectangle;top=0;left=0;right=0;bottom=0;align=left;verticalAlign=top;spacingTop=-2;fillColor=none;spacingLeft=64;spacingRight=4;overflow=hidden;rotatable=0;points=[[0,0.5],[1,0.5]];portConstraint=eastwest;dropTarget=0;" parent="S05moFFJ7QBuVl53iLkL-37" vertex="1">
          <mxGeometry y="52" width="220" height="26" as="geometry" />
        </mxCell>
        <mxCell id="S05moFFJ7QBuVl53iLkL-41" value="FK" style="shape=partialRectangle;top=0;left=0;bottom=0;fillColor=none;align=left;verticalAlign=middle;spacingLeft=4;spacingRight=4;overflow=hidden;rotatable=180;points=[];portConstraint=eastwest;part=1;" parent="S05moFFJ7QBuVl53iLkL-40" vertex="1" connectable="0">
          <mxGeometry width="54" height="26" as="geometry" />
        </mxCell>
        <mxCell id="S05moFFJ7QBuVl53iLkL-42" value="name" style="shape=partialRectangle;top=0;left=0;right=0;bottom=0;align=left;verticalAlign=top;spacingTop=-2;fillColor=none;spacingLeft=64;spacingRight=4;overflow=hidden;rotatable=0;points=[[0,0.5],[1,0.5]];portConstraint=eastwest;dropTarget=0;" parent="S05moFFJ7QBuVl53iLkL-37" vertex="1">
          <mxGeometry y="78" width="220" height="32" as="geometry" />
        </mxCell>
        <mxCell id="S05moFFJ7QBuVl53iLkL-43" value="" style="shape=partialRectangle;top=0;left=0;bottom=0;fillColor=none;align=left;verticalAlign=middle;spacingLeft=4;spacingRight=4;overflow=hidden;rotatable=180;points=[];portConstraint=eastwest;part=1;" parent="S05moFFJ7QBuVl53iLkL-42" vertex="1" connectable="0">
          <mxGeometry width="54" height="32" as="geometry" />
        </mxCell>
        <mxCell id="S05moFFJ7QBuVl53iLkL-44" value="safety_device_record" style="swimlane;fontStyle=1;childLayout=stackLayout;horizontal=1;startSize=26;fillColor=default;horizontalStack=0;resizeParent=1;resizeLast=0;collapsible=1;marginBottom=0;swimlaneFillColor=default;align=center;" parent="1" vertex="1">
          <mxGeometry x="1360" y="135" width="250" height="131" as="geometry" />
        </mxCell>
        <mxCell id="S05moFFJ7QBuVl53iLkL-45" value="safety_device_record_id" style="shape=partialRectangle;top=0;left=0;right=0;bottom=0;align=left;verticalAlign=top;spacingTop=-2;fillColor=none;spacingLeft=64;spacingRight=4;overflow=hidden;rotatable=0;points=[[0,0.5],[1,0.5]];portConstraint=eastwest;dropTarget=0;fontStyle=1" parent="S05moFFJ7QBuVl53iLkL-44" vertex="1">
          <mxGeometry y="26" width="250" height="26" as="geometry" />
        </mxCell>
        <mxCell id="S05moFFJ7QBuVl53iLkL-46" value="PK" style="shape=partialRectangle;top=0;left=0;bottom=0;fillColor=none;align=left;verticalAlign=middle;spacingLeft=4;spacingRight=4;overflow=hidden;rotatable=180;points=[];portConstraint=eastwest;part=1;" parent="S05moFFJ7QBuVl53iLkL-45" vertex="1" connectable="0">
          <mxGeometry width="54" height="26" as="geometry" />
        </mxCell>
        <mxCell id="S05moFFJ7QBuVl53iLkL-47" value="safety_device_id" style="shape=partialRectangle;top=0;left=0;right=0;bottom=0;align=left;verticalAlign=top;spacingTop=-2;fillColor=none;spacingLeft=64;spacingRight=4;overflow=hidden;rotatable=0;points=[[0,0.5],[1,0.5]];portConstraint=eastwest;dropTarget=0;" parent="S05moFFJ7QBuVl53iLkL-44" vertex="1">
          <mxGeometry y="52" width="250" height="26" as="geometry" />
        </mxCell>
        <mxCell id="S05moFFJ7QBuVl53iLkL-48" value="FK" style="shape=partialRectangle;top=0;left=0;bottom=0;fillColor=none;align=left;verticalAlign=middle;spacingLeft=4;spacingRight=4;overflow=hidden;rotatable=180;points=[];portConstraint=eastwest;part=1;" parent="S05moFFJ7QBuVl53iLkL-47" vertex="1" connectable="0">
          <mxGeometry width="54" height="26" as="geometry" />
        </mxCell>
        <mxCell id="S05moFFJ7QBuVl53iLkL-49" value="date" style="shape=partialRectangle;top=0;left=0;right=0;bottom=0;align=left;verticalAlign=top;spacingTop=-2;fillColor=none;spacingLeft=64;spacingRight=4;overflow=hidden;rotatable=0;points=[[0,0.5],[1,0.5]];portConstraint=eastwest;dropTarget=0;" parent="S05moFFJ7QBuVl53iLkL-44" vertex="1">
          <mxGeometry y="78" width="250" height="26" as="geometry" />
        </mxCell>
        <mxCell id="S05moFFJ7QBuVl53iLkL-50" value="" style="shape=partialRectangle;top=0;left=0;bottom=0;fillColor=none;align=left;verticalAlign=middle;spacingLeft=4;spacingRight=4;overflow=hidden;rotatable=180;points=[];portConstraint=eastwest;part=1;" parent="S05moFFJ7QBuVl53iLkL-49" vertex="1" connectable="0">
          <mxGeometry width="54" height="26" as="geometry" />
        </mxCell>
        <mxCell id="S05moFFJ7QBuVl53iLkL-51" value="notes" style="shape=partialRectangle;top=0;left=0;right=0;bottom=0;align=left;verticalAlign=top;spacingTop=-2;fillColor=none;spacingLeft=64;spacingRight=4;overflow=hidden;rotatable=0;points=[[0,0.5],[1,0.5]];portConstraint=eastwest;dropTarget=0;" parent="S05moFFJ7QBuVl53iLkL-44" vertex="1">
          <mxGeometry y="104" width="250" height="26" as="geometry" />
        </mxCell>
        <mxCell id="S05moFFJ7QBuVl53iLkL-52" value="" style="shape=partialRectangle;top=0;left=0;bottom=0;fillColor=none;align=left;verticalAlign=middle;spacingLeft=4;spacingRight=4;overflow=hidden;rotatable=180;points=[];portConstraint=eastwest;part=1;" parent="S05moFFJ7QBuVl53iLkL-51" vertex="1" connectable="0">
          <mxGeometry width="54" height="26" as="geometry" />
        </mxCell>
        <mxCell id="S05moFFJ7QBuVl53iLkL-53" value="users" style="swimlane;fontStyle=1;childLayout=stackLayout;horizontal=1;startSize=26;fillColor=default;horizontalStack=0;resizeParent=1;resizeLast=0;collapsible=1;marginBottom=0;swimlaneFillColor=default;align=center;" parent="1" vertex="1">
          <mxGeometry x="1360" y="310" width="205" height="130" as="geometry" />
        </mxCell>
        <mxCell id="S05moFFJ7QBuVl53iLkL-54" value="user_id" style="shape=partialRectangle;top=0;left=0;right=0;bottom=0;align=left;verticalAlign=top;spacingTop=-2;fillColor=none;spacingLeft=64;spacingRight=4;overflow=hidden;rotatable=0;points=[[0,0.5],[1,0.5]];portConstraint=eastwest;dropTarget=0;fontStyle=1" parent="S05moFFJ7QBuVl53iLkL-53" vertex="1">
          <mxGeometry y="26" width="205" height="26" as="geometry" />
        </mxCell>
        <mxCell id="S05moFFJ7QBuVl53iLkL-55" value="PK" style="shape=partialRectangle;top=0;left=0;bottom=0;fillColor=none;align=left;verticalAlign=middle;spacingLeft=4;spacingRight=4;overflow=hidden;rotatable=180;points=[];portConstraint=eastwest;part=1;" parent="S05moFFJ7QBuVl53iLkL-54" vertex="1" connectable="0">
          <mxGeometry width="54" height="26" as="geometry" />
        </mxCell>
        <mxCell id="S05moFFJ7QBuVl53iLkL-56" value="username" style="shape=partialRectangle;top=0;left=0;right=0;bottom=0;align=left;verticalAlign=top;spacingTop=-2;fillColor=none;spacingLeft=64;spacingRight=4;overflow=hidden;rotatable=0;points=[[0,0.5],[1,0.5]];portConstraint=eastwest;dropTarget=0;" parent="S05moFFJ7QBuVl53iLkL-53" vertex="1">
          <mxGeometry y="52" width="205" height="26" as="geometry" />
        </mxCell>
        <mxCell id="S05moFFJ7QBuVl53iLkL-57" value="" style="shape=partialRectangle;top=0;left=0;bottom=0;fillColor=none;align=left;verticalAlign=middle;spacingLeft=4;spacingRight=4;overflow=hidden;rotatable=180;points=[];portConstraint=eastwest;part=1;" parent="S05moFFJ7QBuVl53iLkL-56" vertex="1" connectable="0">
          <mxGeometry width="54" height="26" as="geometry" />
        </mxCell>
        <mxCell id="S05moFFJ7QBuVl53iLkL-58" value="password" style="shape=partialRectangle;top=0;left=0;right=0;bottom=0;align=left;verticalAlign=top;spacingTop=-2;fillColor=none;spacingLeft=64;spacingRight=4;overflow=hidden;rotatable=0;points=[[0,0.5],[1,0.5]];portConstraint=eastwest;dropTarget=0;" parent="S05moFFJ7QBuVl53iLkL-53" vertex="1">
          <mxGeometry y="78" width="205" height="26" as="geometry" />
        </mxCell>
        <mxCell id="S05moFFJ7QBuVl53iLkL-59" value="" style="shape=partialRectangle;top=0;left=0;bottom=0;fillColor=none;align=left;verticalAlign=middle;spacingLeft=4;spacingRight=4;overflow=hidden;rotatable=180;points=[];portConstraint=eastwest;part=1;" parent="S05moFFJ7QBuVl53iLkL-58" vertex="1" connectable="0">
          <mxGeometry width="54" height="26" as="geometry" />
        </mxCell>
        <mxCell id="S05moFFJ7QBuVl53iLkL-60" value="role" style="shape=partialRectangle;top=0;left=0;right=0;bottom=0;align=left;verticalAlign=top;spacingTop=-2;fillColor=none;spacingLeft=64;spacingRight=4;overflow=hidden;rotatable=0;points=[[0,0.5],[1,0.5]];portConstraint=eastwest;dropTarget=0;" parent="S05moFFJ7QBuVl53iLkL-53" vertex="1">
          <mxGeometry y="104" width="205" height="26" as="geometry" />
        </mxCell>
        <mxCell id="S05moFFJ7QBuVl53iLkL-61" value="" style="shape=partialRectangle;top=0;left=0;bottom=0;fillColor=none;align=left;verticalAlign=middle;spacingLeft=4;spacingRight=4;overflow=hidden;rotatable=180;points=[];portConstraint=eastwest;part=1;" parent="S05moFFJ7QBuVl53iLkL-60" vertex="1" connectable="0">
          <mxGeometry width="54" height="26" as="geometry" />
        </mxCell>
        <mxCell id="S05moFFJ7QBuVl53iLkL-62" style="edgeStyle=orthogonalEdgeStyle;rounded=0;orthogonalLoop=1;jettySize=auto;html=1;exitX=0;exitY=0.5;exitDx=0;exitDy=0;entryX=1;entryY=0.5;entryDx=0;entryDy=0;endArrow=ERmandOne;endFill=0;startArrow=ERoneToMany;startFill=0;endSize=10;startSize=10;" parent="1" source="S05moFFJ7QBuVl53iLkL-33" target="S05moFFJ7QBuVl53iLkL-24" edge="1">
          <mxGeometry relative="1" as="geometry" />
        </mxCell>
        <mxCell id="S05moFFJ7QBuVl53iLkL-64" style="edgeStyle=orthogonalEdgeStyle;rounded=0;orthogonalLoop=1;jettySize=auto;html=1;exitX=1;exitY=0.5;exitDx=0;exitDy=0;endArrow=ERoneToMany;endFill=0;startArrow=ERmandOne;startFill=0;endSize=10;startSize=10;" parent="1" source="S05moFFJ7QBuVl53iLkL-31" target="S05moFFJ7QBuVl53iLkL-40" edge="1">
          <mxGeometry relative="1" as="geometry" />
        </mxCell>
        <mxCell id="S05moFFJ7QBuVl53iLkL-65" style="edgeStyle=orthogonalEdgeStyle;rounded=0;orthogonalLoop=1;jettySize=auto;html=1;endArrow=ERzeroToMany;endFill=0;startArrow=ERmandOne;startFill=0;endSize=10;startSize=10;entryX=0;entryY=0.5;entryDx=0;entryDy=0;exitX=1;exitY=0.5;exitDx=0;exitDy=0;" parent="1" source="S05moFFJ7QBuVl53iLkL-7" target="S05moFFJ7QBuVl53iLkL-47" edge="1">
          <mxGeometry relative="1" as="geometry">
            <mxPoint x="990" y="-250" as="sourcePoint" />
            <mxPoint x="1070" y="180" as="targetPoint" />
          </mxGeometry>
        </mxCell>
        <mxCell id="S05moFFJ7QBuVl53iLkL-73" value="safety_device_type" style="swimlane;fontStyle=1;childLayout=stackLayout;horizontal=1;startSize=26;fillColor=default;horizontalStack=0;resizeParent=1;resizeLast=0;collapsible=1;marginBottom=0;swimlaneFillColor=default;align=center;" parent="1" vertex="1">
          <mxGeometry x="740" y="186" width="223" height="80" as="geometry" />
        </mxCell>
        <mxCell id="S05moFFJ7QBuVl53iLkL-74" value="safety_device_type_id" style="shape=partialRectangle;top=0;left=0;right=0;bottom=0;align=left;verticalAlign=top;spacingTop=-2;fillColor=none;spacingLeft=64;spacingRight=4;overflow=hidden;rotatable=0;points=[[0,0.5],[1,0.5]];portConstraint=eastwest;dropTarget=0;fontStyle=1" parent="S05moFFJ7QBuVl53iLkL-73" vertex="1">
          <mxGeometry y="26" width="223" height="26" as="geometry" />
        </mxCell>
        <mxCell id="S05moFFJ7QBuVl53iLkL-75" value="PK" style="shape=partialRectangle;top=0;left=0;bottom=0;fillColor=none;align=left;verticalAlign=middle;spacingLeft=4;spacingRight=4;overflow=hidden;rotatable=180;points=[];portConstraint=eastwest;part=1;" parent="S05moFFJ7QBuVl53iLkL-74" vertex="1" connectable="0">
          <mxGeometry width="54" height="26" as="geometry" />
        </mxCell>
        <mxCell id="S05moFFJ7QBuVl53iLkL-76" value="safety_device_name" style="shape=partialRectangle;top=0;left=0;right=0;bottom=0;align=left;verticalAlign=top;spacingTop=-2;fillColor=none;spacingLeft=64;spacingRight=4;overflow=hidden;rotatable=0;points=[[0,0.5],[1,0.5]];portConstraint=eastwest;dropTarget=0;" parent="S05moFFJ7QBuVl53iLkL-73" vertex="1">
          <mxGeometry y="52" width="223" height="26" as="geometry" />
        </mxCell>
        <mxCell id="S05moFFJ7QBuVl53iLkL-77" value="" style="shape=partialRectangle;top=0;left=0;bottom=0;fillColor=none;align=left;verticalAlign=middle;spacingLeft=4;spacingRight=4;overflow=hidden;rotatable=180;points=[];portConstraint=eastwest;part=1;" parent="S05moFFJ7QBuVl53iLkL-76" vertex="1" connectable="0">
          <mxGeometry width="54" height="26" as="geometry" />
        </mxCell>
        <mxCell id="S05moFFJ7QBuVl53iLkL-79" style="edgeStyle=orthogonalEdgeStyle;rounded=0;orthogonalLoop=1;jettySize=auto;html=1;exitX=1;exitY=0.5;exitDx=0;exitDy=0;entryX=0;entryY=0.5;entryDx=0;entryDy=0;strokeColor=default;align=center;verticalAlign=middle;fontFamily=Helvetica;fontSize=11;fontColor=default;labelBackgroundColor=default;startArrow=ERmandOne;startFill=0;startSize=10;endArrow=ERoneToMany;endFill=0;endSize=10;" parent="1" source="S05moFFJ7QBuVl53iLkL-74" target="S05moFFJ7QBuVl53iLkL-11" edge="1">
          <mxGeometry relative="1" as="geometry">
            <mxPoint x="938" y="265" as="sourcePoint" />
            <mxPoint x="1040" y="265" as="targetPoint" />
          </mxGeometry>
        </mxCell>
        <mxCell id="fU8XdzItECVycu_1jgfG-3" style="edgeStyle=orthogonalEdgeStyle;rounded=0;orthogonalLoop=1;jettySize=auto;html=1;exitX=1;exitY=0.5;exitDx=0;exitDy=0;entryX=1;entryY=0.5;entryDx=0;entryDy=0;endArrow=ERmandOne;endFill=0;startArrow=ERzeroToMany;startFill=0;endSize=10;startSize=10;" edge="1" parent="1" source="fU8XdzItECVycu_1jgfG-1" target="S05moFFJ7QBuVl53iLkL-38">
          <mxGeometry relative="1" as="geometry">
            <Array as="points">
              <mxPoint x="1310" y="251" />
              <mxPoint x="1310" y="519" />
            </Array>
          </mxGeometry>
        </mxCell>
      </root>
    </mxGraphModel>
  </diagram>
</mxfile>
